/* XPM */
static char *c42fba4f49b34a02c59c1274ac7d988enMsqiheqHCxJdj3K[] = {
/* columns rows colors chars-per-pixel */
"16 16 7 1 ",
"  c #770B11",
". c #880D13",
"X c #930E15",
"o c #9E1818",
"O c #A92420",
"+ c #B32A24",
"@ c #BB2F2C",
/* pixels */
"OO@@@@OO+++@@@+X",
"O+++OOoooO+OO+OX",
"oOOoooO+++OooooX",
"     ...  .... .",
"O@@+++OXO@@@@OO@",
"o+++OOoXoOOO+++o",
"OOOooooXooooooo+",
"    ... ....    ",
"@@++@@@@++++O@@X",
"OoOOO++OOOooOOoX",
"++OoooooooO++ooX",
" .  ...      .. ",
"OO@@@+OX@O++@@@O",
"oOO+OOoXoOOOO+oo",
"OooooooXoooO++Oo",
"   ...    ..... "
};
